<svg id="a6e883fe-7cad-443a-ba0a-90085842e616" data-name="Layer 2" xmlns="http://www.w3.org/2000/svg" viewBox="0 0 1081 1081">
  <defs>
    <style>
      .a25e1faf-57fc-49fb-8a88-c1fc9d37abab, .b9eebfb6-dd00-4807-91c3-4bfe867111e8 {
        fill: url(#brand-sage);
      }

      .a15c73e0-8bd5-4fc5-9d55-216669959f8f, .b02eb351-589c-4c26-974d-31cce9922bb8 {
        fill: url(#brand-moss);
      }

      .a40e0d4c-5e16-43db-b7fb-abdc2e42c2d2, .fa7138b7-4156-4b8a-a5af-035643c164cb {
        fill: none;
      }

      .a40e0d4c-5e16-43db-b7fb-abdc2e42c2d2, .bf34be7d-2c11-4e19-80fc-ea78dde0f5b3 {
        stroke: #616161;
      }

      .a1447b3c-3404-447e-9d66-e6d21427bf1f, .a40e0d4c-5e16-43db-b7fb-abdc2e42c2d2, .b02eb351-589c-4c26-974d-31cce9922bb8, .b48efa86-61a9-43ce-b9b0-bce55588a51d, .b9eebfb6-dd00-4807-91c3-4bfe867111e8, .bf34be7d-2c11-4e19-80fc-ea78dde0f5b3, .e0c0af7e-42ea-4b87-9883-4ac58d248bc3, .ee757ea7-972e-494a-ba2f-20c54e37d5f2, .fa7138b7-4156-4b8a-a5af-035643c164cb {
        stroke-miterlimit: 10;
      }

      .b48efa86-61a9-43ce-b9b0-bce55588a51d {
        fill: url(#brand-earth);
      }

      .a1447b3c-3404-447e-9d66-e6d21427bf1f, .b02eb351-589c-4c26-974d-31cce9922bb8, .b48efa86-61a9-43ce-b9b0-bce55588a51d, .b9eebfb6-dd00-4807-91c3-4bfe867111e8, .e0c0af7e-42ea-4b87-9883-4ac58d248bc3, .ee757ea7-972e-494a-ba2f-20c54e37d5f2, .fa7138b7-4156-4b8a-a5af-035643c164cb {
        stroke: #6d5e4f;
      }

      .a1447b3c-3404-447e-9d66-e6d21427bf1f, .e0c0af7e-42ea-4b87-9883-4ac58d248bc3, .ee757ea7-972e-494a-ba2f-20c54e37d5f2 {
        fill: url(#brand-aqua);
      }

      .b3027fc1-7303-4edd-a0a3-691f860eb656, .bf34be7d-2c11-4e19-80fc-ea78dde0f5b3 {
        fill: url(#brand-deep);
      }

      .ee757ea7-972e-494a-ba2f-20c54e37d5f2 {
        stroke-width: 2px;
      }

      .e0c0af7e-42ea-4b87-9883-4ac58d248bc3 {
        stroke-width: 5px;
      }
    </style>
    <linearGradient id="brand-sage" x1="135" y1="140" x2="940" y2="930" gradientUnits="userSpaceOnUse">
      <stop offset="0%" stop-color="#d7f1c6"/>
      <stop offset="52%" stop-color="#a8d494"/>
      <stop offset="100%" stop-color="#6f9d58"/>
    </linearGradient>
    <linearGradient id="brand-moss" x1="90" y1="120" x2="980" y2="920" gradientUnits="userSpaceOnUse">
      <stop offset="0%" stop-color="#86b36f"/>
      <stop offset="55%" stop-color="#6f9a55"/>
      <stop offset="100%" stop-color="#567747"/>
    </linearGradient>
    <linearGradient id="brand-earth" x1="160" y1="160" x2="920" y2="960" gradientUnits="userSpaceOnUse">
      <stop offset="0%" stop-color="#8d7a68"/>
      <stop offset="55%" stop-color="#6d5e4f"/>
      <stop offset="100%" stop-color="#4c4036"/>
    </linearGradient>
    <linearGradient id="brand-aqua" x1="160" y1="120" x2="900" y2="900" gradientUnits="userSpaceOnUse">
      <stop offset="0%" stop-color="#d8f2ff"/>
      <stop offset="55%" stop-color="#a6e5ff"/>
      <stop offset="100%" stop-color="#77c8de"/>
    </linearGradient>
    <linearGradient id="brand-deep" x1="240" y1="110" x2="860" y2="860" gradientUnits="userSpaceOnUse">
      <stop offset="0%" stop-color="#0b7a82"/>
      <stop offset="60%" stop-color="#005c65"/>
      <stop offset="100%" stop-color="#00454d"/>
    </linearGradient>
  </defs>
  <path class="a25e1faf-57fc-49fb-8a88-c1fc9d37abab" d="M174.75,532.31c-7.79.58-5.16,1-10.43.86-5.29-.72.71,1.1-13.12-2.52-8.45-2.22-25.7-8.19-32.9-13a12.26,12.26,0,0,0-5-2.23c1.29,1.41,4.53,4.88,5.87,6.24,19,21.42,40.54,46.08,65.32,62.23,37,24.11,73.58,46.51,114.83,62.13,37.06,14,39.27,17.52,78,25.72.71.15,1.44.2,2.95.41l3.05-11.33c0-3.29-2.7-2.79-4.55-3.37-33.92-15.36-21.78-10.83-56.68-28.89-33.86-17.52-60.55-41.09-88.31-67.38-10.67-10.11-34.11-41.34-42.85-53.13C189.91,506.59,191.83,523.39,174.75,532.31Z" transform="translate(0.5 0.5)"/>
  <path class="a15c73e0-8bd5-4fc5-9d55-216669959f8f" d="M238,366.92c-93-3.41-92.33-36.83-116.11-52.49-3.23-6.14-6.05-12.5-9.52-19.72,0,3.69-.2,6.44,0,9.16,4,47,17.46,72.11,34.54,116.12,13.73,35.39,19.28,50.47,42.25,80.69,11.46,15.08,21.37,35.13,36,47.14,21.29,22.25,32.85,41.76,61.21,56.14,39.88,32.76,96.64,53.47,141.38,65.95,3.4-7.26,5.13-27.81,6.61-37.17C401.18,611.39,368,579.65,340.74,551s-43.95-52.4-63-87.15-29.08-56.78-39.36-95.4" transform="translate(0.5 0.5)"/>
  <path class="b48efa86-61a9-43ce-b9b0-bce55588a51d" d="M238,367c-25.11-.15-54.76-4.88-77.05-16.95-21.55-11.67-37.47-28.53-46.86-51.32a8.28,8.28,0,0,0-2.2-3.31c.33,2.37.59,4.75,1,7.1,10.33,56.22,27.59,110.11,54.25,160.8C197,520,237.2,568,289,605.86c41,30,86.61,50.44,135.55,63.66a26.52,26.52,0,0,0,3.25.39c2.8-12.22,4.57-24.46,6.61-37.17-2.32-1.68-4.65-3.39-7-5.06-48.29-34.24-90-75.14-124.16-123.52-29.35-41.53-51.35-86.71-64.86-135.72-.14-.51-.28-1-.41-1.52m-49.12,138c-28.29-42-48.34-87.68-62.93-136.3a624.72,624.72,0,0,1-19.24-88.51c-.86-5.79-1.15-11.67-1.66-17.51a9.06,9.06,0,0,1,.29-2.07c12.74-.5,41.13,17.18,53.69,33.56,13.63,17.8,20.08,38,19.5,60.69a104.09,104.09,0,0,0,28.12,7.45c9.45,1.13,21.29,1.69,30.77,2.53M191,508.06c-2.5,11.07-7.61,24.78-22,25.25-5.92.2-12-1.12-17.84-2.66A150.74,150.74,0,0,1,117.68,517c-1.25-.69-2.54-1.33-4.16-2.17,11.78,17.81,65.57,67.43,120.82,99.13,45.61,26.17,93.71,45.83,145.81,58.18,1.14-4.49,2.16-8.49,3.24-12.75-2.36-1-4.33-1.89-6.35-2.68-75.91-29.44-136.68-78.19-183.26-144.65-.94-1.34-1.86-2.68-2.78-4m46.4-143.29a453.7,453.7,0,0,1-15.75-127.26,418.92,418.92,0,0,1,8.56-76.9c.15-.71.36-1.4.45-1.74,2.42,1,4.62,2.29,7,2.87,25,6.1,48.39,15.89,68.5,32.33,17,13.87,28.67,31.24,33.63,52.8a87.07,87.07,0,0,1,1.83,30.42c21.83,9.82,44.39,17.09,68.21,23.23,9-43.82,25.8-84.37,49.23-122.19,23.31-37.62,51.66-71,84.58-101.45,63.48,61.4,107.16,133.38,125.49,220.42a54.67,54.67,0,0,0,6.52-.46c15.82-3,31.65-6,47.44-9.23,5-1,4.75-1.27,5.56-5.91,7.41-42.38,29.25-74.48,67.69-94.67,19.59-10.28,40.62-15.53,62.56-17.54,1.93-.18,3.79-1.16,6.35-2,3.84,30.24,4,61.15,1.53,92.1a607.22,607.22,0,0,1-14.56,92.28c14,4.81,28.31,4.92,42.7,3.89,1.93-5.58,3.54-10.82,5.52-15.9,9.87-25.34,24.73-46.95,47.46-62.53a107.71,107.71,0,0,1,39.67-16.91c2.09-.43,4.14-1.06,7-1.79,0,2.11.15,4.39,0,6.65-1,12.78-1.64,25.62-3.21,38.33a481.5,481.5,0,0,1-22.24,96.21c-11.76,34.51-27.34,67.18-47.72,97.45-2.68,4-2.69,7.12-.28,11,3.63,5.82,7.83,10.93,14.24,14.14,3.93-5.4,7.61-10.62,11.46-15.71a155,155,0,0,1,34.39-33.78c4.63-3.26,9.61-6,14.53-8.86a26.88,26.88,0,0,1,6.1-2.43c6.9-1.93,10.86.87,10.68,8.12-.26,10.82-3,20.94-10,29.58-24.33,30.15-54.13,54-86.31,75.17-45,29.55-93.62,51.6-144.49,68.87a776.83,776.83,0,0,1-86.87,23.78c-1.78.38-3.6.64-5.41.85a6,6,0,0,1-1.85-.51L673.86,655l-17.46,4.74L644.78,636l-8.9,4.75-38.71-33.24c-2.06,2.91-4,5.33-5.57,8a6.41,6.41,0,0,1-6.2,3.51q-49.5-.15-99,0a6.41,6.41,0,0,1-6.22-3.52c-1.37-2.36-3-4.58-4.91-7.51-5.33,5.12-9.77,10.59-14.47,15.8s-9.52,10.64-14.57,16.27L437,635.15c-2.33,12.86-4.57,25.2-6.92,38.13-8-.88-15.1-3.81-22.38-5.89s-14.27-4.47-21.81-6.85l-4.13,14c-2.11-.32-4.24-.47-6.28-1A530.67,530.67,0,0,1,197.65,593.3a490.07,490.07,0,0,1-88-77.69c-8.88-10-12-22.3-14.51-34.9a18.31,18.31,0,0,1,0-5.48c.59-5,3.32-7.33,8.27-6.33a38.23,38.23,0,0,1,10.19,3.89c10.59,5.66,19.81,13.24,28.43,21.49a209,209,0,0,1,30.2,36.31c5.27-.49,9.67-3.09,11.81-8,1.91-4.4,4.72-10.88,4.82-17.63M238,367m304-71.5a26.3,26.3,0,0,0-2.14,1.68c-27.25,27-49.42,57.48-64.2,93-16.71,40.18-22.72,82-19,125.34A304.55,304.55,0,0,0,481,611.45c1.64,3.77,3.63,5.06,7.73,5,31.15-.18,62.3-.11,93.45-.12h5.4a29,29,0,0,0,1.57-2.61c7.37-16.18,14.16-32.58,19.3-49.62,11.56-38.38,16-77.38,10.43-117.28a255.91,255.91,0,0,0-49.78-120.53A273,273,0,0,0,542,295.49ZM657.62,656.64c44.75-12.48,87.2-28.36,127.84-49,28.37-14.39,55.14-31.22,79.78-51.39,14.66-12,28.21-25.17,39.67-40.25a402.64,402.64,0,0,0,54.83-98.62,490.24,490.24,0,0,0,31.33-136.59c.23-2.72,0-5.48,0-9.16-3.47,7.21-6.29,13.57-9.53,19.71C972.79,308,962,323.09,947.33,335.29,920.36,357.8,889.58,363,856,356c-1.35-.28-2.74-.42-4.35-.67-10.29,38.63-24.47,75.23-43.48,109.93a454.7,454.7,0,0,1-69.48,95.19c-27.23,28.66-58,53-91.28,74.34Zm9.93-40.42.57.68c1-.62,2-1.19,3-1.88a463.55,463.55,0,0,0,53.15-44.33c66.44-65.05,108.42-143.59,128.57-234.05,4.9-22,8-44.32,10.23-66.75,2.69-26.68,3.7-53.36,1.67-80.12-.14-1.87-.43-3.73-.65-5.6a5.91,5.91,0,0,0-1.94,3,112.88,112.88,0,0,1-29.62,47.54c-16.37,15.91-35.53,27.63-56.21,37a343.22,343.22,0,0,1-94.23,26.86c-3.93.55-7.84,1.16-12.19,1.8,5.69,32,7.65,63.55,5.06,95.43,9.84-6.76,19-13.38,28.52-19.54a148.29,148.29,0,0,1,31-15.19c10.59-3.75,21.13-7.76,32.63-9.28a59.84,59.84,0,0,1,1.12,6c.76,10.41,1.93,20.82,2,31.24a282.61,282.61,0,0,1-18.93,105.36c-17.55,45.62-45.2,84.41-80.18,118.22C670,613.77,668.76,615,667.55,616.22ZM231.21,173.52c-10.11,54.67-8.57,109,2.54,163.26a435.06,435.06,0,0,0,62.14,151A481,481,0,0,0,406.55,607.56a19.32,19.32,0,0,0-3.29-4.25c-6.27-6.68-12.83-13.11-18.77-20.07-53-62.08-80.81-133.09-76.09-215.55.3-5.25,1-10.47,1.63-16.4,35.05,7.18,65.4,22.34,93.18,45.21,0-16.62-.66-32,.18-47.28s3.18-30.47,4.86-45.64a4.09,4.09,0,0,0-1-.68c-1.58-.48-3.17-.91-4.75-1.35-30.8-8.54-60.7-19.32-88.77-34.85-16.9-9.36-32.82-20.08-47-33.24-15.86-14.73-28-31.88-33.75-53.08C232.4,178.09,231.81,175.8,231.21,173.52ZM636.46,638.09c2.28-1.69,4.22-3,6.08-4.49a343.15,343.15,0,0,0,65.6-66.92c41.67-56.37,62.36-119.28,59-189.65-.34-7.26-1.24-14.5-1.94-22.45-4.24,1.11-7.73,2-11.2,2.94a195.13,195.13,0,0,0-76.45,40.78c-2.13,1.83-3.62,3.69-3.94,6.81a394.15,394.15,0,0,1-20.41,90.33,496.82,496.82,0,0,1-50.27,103c-1.45,2.26-2.86,4.55-4.45,7.08ZM312.86,355a18,18,0,0,0-.89,3.36c-.58,9.13-1.58,18.27-1.54,27.41.19,53.47,14.79,103,42.06,148.8,23.65,39.76,55.18,72.4,91.34,100.83a20.48,20.48,0,0,0,2.16,1.3l27.79-31.17c-1-1.78-1.74-3.21-2.51-4.65-7.83-14.7-16.11-29.18-23.4-44.14C424.64,509.1,409.68,459,404.59,406.09c-.32-3.28-1.11-5.73-3.79-8a207.84,207.84,0,0,0-82.94-42.38A44.88,44.88,0,0,0,312.86,355ZM916.31,505.41l-3.49,4.65A250.39,250.39,0,0,1,884,543.21c-27.75,26.29-59.26,47.19-93.11,64.71a677.08,677.08,0,0,1-108.74,44.3c-1.85.58-3.67,1.27-5.91,2.06,1.12,4.17,2.09,7.75,3,11.33,1.51-.21,2.24-.26,3-.41a771.4,771.4,0,0,0,113.8-33.14c41.24-15.62,80.73-34.75,117.72-58.85,24.78-16.15,48.06-34.2,68.91-55.27,1.34-1.36,2.58-2.83,3.87-4.24a12.26,12.26,0,0,0-5,2.23c-7.2,4.8-14.69,8.94-23.15,11.16-13.82,3.63-25.34-.17-34.59-10.83C921.13,513.12,919.06,509.42,916.31,505.41ZM862.77,172.13a13.66,13.66,0,0,0-2.41-.27c-13.53,1.22-26.9,3.32-39.84,7.61-48.49,16.09-78.35,48.92-88.9,99.06-.43,2-.5,4.15-.79,6.61,1.68-.32,2.59-.41,3.45-.67a297.51,297.51,0,0,0,55.91-22.64,184.45,184.45,0,0,0,34-23.11C843.56,221.85,857,201.39,862.3,176,862.55,174.81,862.6,173.58,862.77,172.13Zm-630.38-8.88c1.51,11.24,3.85,21.14,8.18,30.52,7.67,16.62,19.2,30.24,33,42.06,18.75,16.12,39.81,28.6,62.23,38.9a35.35,35.35,0,0,0,3.4,1.1,84.25,84.25,0,0,0-4.69-38.64c-8.55-22.74-24.18-39.39-44.7-51.83a177.3,177.3,0,0,0-49.57-20.43C237.93,164.37,235.62,163.94,232.39,163.25ZM990.93,263.56l-1.16-1a104.6,104.6,0,0,0-54.92,28.53c-18.24,17.76-29.85,39.25-37,64.66,3.81-1,6.54-1.84,9.31-2.54,19.43-4.86,35.46-15.31,49-29.86,13-14,22.54-30.14,29.95-47.63C987.76,271.68,989.31,267.6,990.93,263.56Zm-882.77-.37c.19,21.16,12,47.86,28.66,65.29a99,99,0,0,0,38.68,25C180.18,316.11,147.73,272.82,108.16,263.19Zm302,346.58-.64.66c.56.5,1.12,1,1.67,1.51l.73-.74Z" transform="translate(0.5 0.5)"/>
  <path class="b48efa86-61a9-43ce-b9b0-bce55588a51d" d="M575.11,1003.12a128.48,128.48,0,0,1-14.61-37.26c-6.34-29.05.94-55.16,17.32-79.23,1.73-2.53,2.79-4.63,1.76-8-9-29.34-2.34-55.69,15.87-79.65,9.27-12.21,20.41-22.53,32.61-31.73,23.11-17.42,48.49-30.85,74.88-42.52,45.37-20,92.6-34.56,140.5-47.11,35.63-9.34,71.6-17.11,107.83-23.69,11.36-2.06,22.76-3.83,34.15-5.69a27.93,27.93,0,0,1,3.86,0c-.4,22.88-6.46,44.34-14.84,66L1049.78,701c0,3.7.21,6.56,0,9.38a215.66,215.66,0,0,1-29.6,92.35c-18.15,30.57-42.34,55.56-70.35,77.11-24.51,18.86-51.06,34.3-78.93,47.61-45.15,21.58-92.4,37.12-140.83,49.29a962.65,962.65,0,0,1-118.75,22.17c-10.37,1.26-20.73,2.59-31.09,3.86C578.57,1003,576.93,1003,575.11,1003.12ZM1047.86,704.6c-2,.21-2.91.25-3.79.4-14.63,2.42-29.37,4.35-43.88,7.39-36.56,7.67-73.14,15.27-109.47,23.94a1158.83,1158.83,0,0,0-127.87,38.16c-37.25,13.57-73.56,29.19-107.78,49.37A301.39,301.39,0,0,0,609,856.62c-13.57,11.91-25.67,25.11-34.69,40.91-9.11,16-14,33-13.3,51.45.69,17.17,6.16,33,13.83,48.23.48.95,1.13,1.82,1.81,2.9,2.88-.19,5.62-.23,8.33-.58,15.62-2,31.25-4,46.85-6.17A941,941,0,0,0,761.17,965.6c46.46-13.3,91.41-30.41,133.94-53.53C927.82,894.28,958,873,983.82,846c30.57-32,51.76-69.06,59.95-112.93C1045.48,723.92,1046.44,714.64,1047.86,704.6Zm-62.5-52.73a27.56,27.56,0,0,0-4.37,0c-10.64,1.79-21.33,3.39-31.9,5.55-25.64,5.24-51.34,10.27-76.81,16.25C828.42,684,785.07,696.16,742.81,712c-30.42,11.38-60.14,24.26-88,41-20.37,12.23-39.36,26.23-54.4,44.94-15.26,19-24,40.15-21,65.06.61,5,1.17,10,3.67,15.08,1.27-1.41,2.19-2.51,3.18-3.53,5.74-5.91,11.27-12.06,17.3-17.66,15.8-14.64,33.54-26.69,52.09-37.52,31.25-18.25,64.26-32.78,98.16-45.32,68.34-25.26,138.74-43.15,210-58,5.18-1.07,7.84-3.31,9.68-8.08a193,193,0,0,0,11.07-41.85C985.18,661.53,986.8,656.88,985.36,651.87Z" transform="translate(0.5 0.5)"/>
  <path class="b48efa86-61a9-43ce-b9b0-bce55588a51d" d="M30.17,700.91l72.57,12.87c-10-23.07-16.44-46.36-17.33-71.68,4.6.63,8.88,1.13,13.13,1.82a1403.77,1403.77,0,0,1,185.62,42.76c40,12.22,79.22,26.41,116.37,45.89,20.2,10.58,39.3,22.79,56.75,37.5,11.58,9.75,21.63,20.88,29.34,34,12.62,21.44,16.21,44.15,8.75,68.15-1,3.18-.15,5.18,1.66,7.42a111.89,111.89,0,0,1,21.2,40c7,24.57,3.61,48.26-6.81,71.2-1.88,4.13-4.14,8.09-6.27,12.23-7.75-.8-15-1.45-22.28-2.33-36.75-4.49-73.29-10.25-109.4-18.47C320,970.09,267.57,954.4,217.59,931.41c-35.1-16.15-68.33-35.36-98.11-60.18-30.12-25.09-54.71-54.53-71-90.45a208.84,208.84,0,0,1-18.27-73.72C30.08,705.44,30.17,703.8,30.17,700.91ZM504,1000.28c2.67-5.76,5.34-10.78,7.4-16C522.94,954.72,522,926,506.1,898c-8-14-18.37-26-30.1-36.91-19.18-17.85-40.92-32.07-63.81-44.59-45.53-24.88-93.81-43.08-143.27-58.29C193,734.91,115.68,717.7,37.32,705c-1.36-.22-2.74-.29-4.65-.48.3,3.2.59,5.89.81,8.59,2.14,26.65,9.69,51.76,21.76,75.53,17.31,34.12,42.26,61.85,72.05,85.48,29,23,61.05,41.09,94.72,56.31C276.18,955,333,971.17,391,983.3c28.51,6,57.29,10.37,86.18,14C485.89,998.45,494.63,999.27,504,1000.28ZM89.13,645.55a22.69,22.69,0,0,0-.32,3.79c.68,5.26,1.34,10.53,2.21,15.76a177.34,177.34,0,0,0,13.75,45,7.73,7.73,0,0,0,6.1,4.72c22.9,5,45.81,9.92,68.59,15.35,45.8,10.93,91.06,23.78,135.4,39.67,36.61,13.12,72.36,28.24,106.2,47.55,25.41,14.5,49.2,31.21,69.1,53a10.26,10.26,0,0,0,2.18,1.28c2.62-9.44,4.16-18.55,3.62-27.94-1-17-7.38-32-17.08-45.71-11.05-15.62-25.37-27.86-40.82-38.86-30.39-21.65-63.95-37.11-98.62-50.33-33.4-12.73-67.55-23.1-102.09-32.24q-65.35-17.29-132-28.42C100.13,647.31,94.93,646.49,89.13,645.55Z" transform="translate(0.5 0.5)"/>
  <path class="b48efa86-61a9-43ce-b9b0-bce55588a51d" d="M445.4,702.43c18-27.51,40.38-49.92,71.53-62,23.53-9.12,46-5.92,67.38,6.95a114.35,114.35,0,0,1,28,23.65c7.86,9.16,15,18.93,22.51,28.4a5.43,5.43,0,0,1,.8,6c-11.29,27.89-25.63,53.92-46.31,76.07-9.75,10.44-20.82,19-34.7,23.36-14.48,4.52-28.21,3-41-5.26-10.61-6.86-19.14-15.94-26.87-25.75-16.76-21.28-29.9-44.72-40.68-69.52C445.77,703.74,445.6,703,445.4,702.43ZM539.33,805c5.49-1.27,11.11-2.14,16.45-3.87,13.49-4.38,23.81-13.44,33.21-23.65A202.71,202.71,0,0,0,611.54,747a278.62,278.62,0,0,0,20.09-39.68c1-2.44,1.74-4.66,0-7.21-11.88-17.1-25-33.08-41.9-45.51-14.26-10.47-30.17-16.8-48.05-16.2-14.33.47-27.68,5.15-40,12.5-20.64,12.34-37.1,29.1-51,48.61-1.75,2.46-1.64,4.4-.46,7a334,334,0,0,0,35.59,61.19,135.19,135.19,0,0,0,22.42,24.1C517.22,799.24,527,804.73,539.33,805Z" transform="translate(0.5 0.5)"/>
  <path class="b48efa86-61a9-43ce-b9b0-bce55588a51d" d="M539.35,902.1c-9.38-27.25-18.77-54.49-28.55-82.89a35.19,35.19,0,0,1,4.42,1.58q24.46,13.82,49.19.51c1.12-.6,2.3-1.1,3.47-1.62.15-.07.36,0,.75,0,.13.37.53.9.42,1.25q-13.9,40.65-27.87,81.27Zm.29-7.5,1.18,0c8-23.14,16-46.28,24.31-70.34-8.74,3.46-16.37,6.45-24.8,6.48s-15.93-2.61-23.48-5.81l-.78.94Q527.86,860.27,539.64,894.6Z" transform="translate(0.5 0.5)"/>
  <path class="b02eb351-589c-4c26-974d-31cce9922bb8" d="M657.62,656.64,647.39,634.8c33.24-21.35,64.05-45.68,91.28-74.34a454.7,454.7,0,0,0,69.48-95.19c19-34.7,33.19-71.3,43.48-109.93,1.61.25,3,.39,4.35.67,33.6,7,64.38,1.79,91.35-20.72,14.63-12.2,25.46-27.26,34.24-43.92,3.24-6.14,6.06-12.5,9.53-19.71,0,3.68.2,6.44,0,9.16a490.24,490.24,0,0,1-31.33,136.59A402.64,402.64,0,0,1,904.91,516c-11.46,15.08-25,28.24-39.67,40.25-24.64,20.17-51.41,37-79.78,51.39C744.82,628.28,702.37,644.16,657.62,656.64Z" transform="translate(0.5 0.5)"/>
  <path class="b9eebfb6-dd00-4807-91c3-4bfe867111e8" d="M667.55,616.22c1.21-1.22,2.41-2.45,3.64-3.65,35-33.81,62.63-72.6,80.18-118.22A282.61,282.61,0,0,0,770.3,389c-.11-10.42-1.28-20.83-2-31.24a59.84,59.84,0,0,0-1.12-6c-11.5,1.52-22,5.53-32.63,9.28a148.29,148.29,0,0,0-31,15.19C694,382.42,684.8,389,675,395.8c2.59-31.88.63-63.47-5.06-95.43,4.35-.64,8.26-1.25,12.19-1.8a343.22,343.22,0,0,0,94.23-26.86c20.68-9.34,39.84-21.06,56.21-37a112.88,112.88,0,0,0,29.62-47.54,5.91,5.91,0,0,1,1.94-3c.22,1.87.51,3.73.65,5.6,2,26.76,1,53.44-1.67,80.12-2.27,22.43-5.33,44.75-10.23,66.75-20.15,90.46-62.13,169-128.57,234.05A463.55,463.55,0,0,1,671.12,615c-1,.69-2,1.26-3,1.88Z" transform="translate(0.5 0.5)"/>
  <path class="b9eebfb6-dd00-4807-91c3-4bfe867111e8" d="M231.21,173.52c.6,2.28,1.19,4.57,1.81,6.86,5.72,21.2,17.89,38.35,33.75,53.08,14.18,13.16,30.1,23.88,47,33.24,28.07,15.53,58,26.31,88.77,34.85,1.58.44,3.17.87,4.75,1.35a4.09,4.09,0,0,1,1,.68c-1.68,15.17-4,30.37-4.86,45.64s-.18,30.66-.18,47.28c-27.78-22.87-58.13-38-93.18-45.21-.6,5.93-1.33,11.15-1.63,16.4-4.72,82.46,23.11,153.47,76.09,215.55,5.94,7,12.5,13.39,18.77,20.07a19.32,19.32,0,0,1,3.29,4.25A481,481,0,0,1,295.89,487.79a435.06,435.06,0,0,1-62.14-151C222.64,282.55,221.1,228.19,231.21,173.52Z" transform="translate(0.5 0.5)"/>
  <path class="a1447b3c-3404-447e-9d66-e6d21427bf1f" d="M636.46,638.09l-38-32.61c1.59-2.53,3-4.82,4.45-7.08a496.82,496.82,0,0,0,50.27-103,394.15,394.15,0,0,0,20.41-90.33c.32-3.12,1.81-5,3.94-6.81A195.13,195.13,0,0,1,754,357.52c3.47-.95,7-1.83,11.2-2.94.7,7.95,1.6,15.19,1.94,22.45,3.36,70.37-17.33,133.28-59,189.65a343.15,343.15,0,0,1-65.6,66.92C640.68,635.05,638.74,636.4,636.46,638.09Z" transform="translate(0.5 0.5)"/>
  <path class="a1447b3c-3404-447e-9d66-e6d21427bf1f" d="M312.86,355a44.88,44.88,0,0,1,5,.71,207.84,207.84,0,0,1,82.94,42.38c2.68,2.25,3.47,4.7,3.79,8,5.09,52.9,20.05,103,43.28,150.67,7.29,15,15.57,29.44,23.4,44.14.77,1.44,1.55,2.87,2.51,4.65L446,636.72a20.48,20.48,0,0,1-2.16-1.3c-36.16-28.43-67.69-61.07-91.34-100.83-27.27-45.85-41.87-95.33-42.06-148.8,0-9.14,1-18.28,1.54-27.41A18,18,0,0,1,312.86,355Z" transform="translate(0.5 0.5)"/>
  <path class="b9eebfb6-dd00-4807-91c3-4bfe867111e8" d="M916.31,505.41c2.75,4,4.82,7.71,7.54,10.85,9.25,10.66,20.77,14.46,34.59,10.83,8.46-2.22,15.95-6.36,23.15-11.16a12.26,12.26,0,0,1,5-2.23c-1.29,1.41-2.53,2.88-3.87,4.24-20.85,21.07-44.13,39.12-68.91,55.27-37,24.1-76.48,43.23-117.72,58.85a771.4,771.4,0,0,1-113.8,33.14c-.71.15-1.44.2-3,.41-1-3.58-1.93-7.16-3-11.33,2.24-.79,4.06-1.48,5.91-2.06a677.08,677.08,0,0,0,108.74-44.3c33.85-17.52,65.36-38.42,93.11-64.71a250.39,250.39,0,0,0,28.81-33.15Z" transform="translate(0.5 0.5)"/>
  <path class="bf34be7d-2c11-4e19-80fc-ea78dde0f5b3" d="M862.77,172.13c-.17,1.45-.22,2.68-.47,3.87-5.31,25.39-18.74,45.85-38.08,62.72a184.45,184.45,0,0,1-34,23.11,297.51,297.51,0,0,1-55.91,22.64c-.86.26-1.77.35-3.45.67.29-2.46.36-4.57.79-6.61,10.55-50.14,40.41-83,88.9-99.06,12.94-4.29,26.31-6.39,39.84-7.61A13.66,13.66,0,0,1,862.77,172.13Z" transform="translate(0.5 0.5)"/>
  <path class="bf34be7d-2c11-4e19-80fc-ea78dde0f5b3" d="M232.39,163.25c3.23.69,5.54,1.12,7.81,1.68a177.3,177.3,0,0,1,49.57,20.43c20.52,12.44,36.15,29.09,44.7,51.83a84.25,84.25,0,0,1,4.69,38.64,35.35,35.35,0,0,1-3.4-1.1c-22.42-10.3-43.48-22.78-62.23-38.9-13.76-11.82-25.29-25.44-33-42.06C236.24,184.39,233.9,174.49,232.39,163.25Z" transform="translate(0.5 0.5)"/>
  <path class="bf34be7d-2c11-4e19-80fc-ea78dde0f5b3" d="M990.93,263.56c-1.62,4-3.17,8.12-4.87,12.13-7.41,17.49-17,33.65-29.95,47.63-13.52,14.55-29.55,25-49,29.86-2.77.7-5.5,1.5-9.31,2.54,7.18-25.41,18.79-46.9,37-64.66a104.6,104.6,0,0,1,54.92-28.53Z" transform="translate(0.5 0.5)"/>
  <path class="bf34be7d-2c11-4e19-80fc-ea78dde0f5b3" d="M108.16,263.19c39.57,9.63,72,52.92,67.34,90.28a99,99,0,0,1-38.68-25C120.13,311.05,108.35,284.35,108.16,263.19Z" transform="translate(0.5 0.5)"/>
  <path class="fa7138b7-4156-4b8a-a5af-035643c164cb" d="M410.2,609.77,412,611.2l-.73.74c-.55-.51-1.11-1-1.67-1.51Z" transform="translate(0.5 0.5)"/>
  <path class="b02eb351-589c-4c26-974d-31cce9922bb8" d="M1047.86,704.6c-1.42,10-2.38,19.32-4.09,28.46-8.19,43.87-29.38,80.94-59.95,112.93-25.81,27-56,48.29-88.71,66.08-42.53,23.12-87.48,40.23-133.94,53.53a941,941,0,0,1-129.35,27.76c-15.6,2.18-31.23,4.16-46.85,6.17-2.71.35-5.45.39-8.33.58-.68-1.08-1.33-2-1.81-2.9C567.16,982,561.69,966.15,561,949c-.74-18.44,4.19-35.49,13.3-51.45,9-15.8,21.12-29,34.69-40.91a301.39,301.39,0,0,1,46.08-32.76c34.22-20.18,70.53-35.8,107.78-49.37a1158.83,1158.83,0,0,1,127.87-38.16c36.33-8.67,72.91-16.27,109.47-23.94,14.51-3,29.25-5,43.88-7.39C1045,704.85,1045.84,704.81,1047.86,704.6ZM636.32,957.91c26.35-.57,49.73-5.69,72.73-12.89,31.33-9.81,61.05-23,87.37-42.93a164.17,164.17,0,0,0,19.75-18.19,45,45,0,0,0,7.89-12.46c4.73-10.5,1.59-19.56-8.42-25.3a31,31,0,0,0-9.1-3.73,142.24,142.24,0,0,0-20.59-3c-16.22-.85-32.16,1.88-47.93,5.36-38.82,8.56-75.36,22.72-108.54,44.91-10.55,7-20.36,15-28.41,25a39.85,39.85,0,0,0-7.89,14.34c-2.41,8.69.11,16.19,7.66,21a47,47,0,0,0,11,4.93C620.45,957.68,629.47,957.79,636.32,957.91Z" transform="translate(0.5 0.5)"/>
  <path class="b9eebfb6-dd00-4807-91c3-4bfe867111e8" d="M985.36,651.87c1.44,5-.18,9.66-.85,14.27A193,193,0,0,1,973.44,708c-1.84,4.77-4.5,7-9.68,8.08-71.23,14.81-141.63,32.7-210,58-33.9,12.54-66.91,27.07-98.16,45.32-18.55,10.83-36.29,22.88-52.09,37.52-6,5.6-11.56,11.75-17.3,17.66-1,1-1.91,2.12-3.18,3.53-2.5-5-3.06-10.07-3.67-15.08-3-24.91,5.73-46.07,21-65.06,15-18.71,34-32.71,54.4-44.94,27.89-16.75,57.61-29.63,88-41,42.26-15.81,85.61-28,129.47-38.27,25.47-6,51.17-11,76.81-16.25,10.57-2.16,21.26-3.76,31.9-5.55A27.56,27.56,0,0,1,985.36,651.87Z" transform="translate(0.5 0.5)"/>
  <path class="b02eb351-589c-4c26-974d-31cce9922bb8" d="M504,1000.28c-9.34-1-18.08-1.83-26.78-2.94-28.89-3.67-57.67-8.08-86.18-14C333,971.17,276.18,955,222,930.46c-33.67-15.22-65.68-33.27-94.72-56.31-29.79-23.63-54.74-51.36-72.05-85.48-12.07-23.77-19.62-48.88-21.76-75.53-.22-2.7-.51-5.39-.81-8.59,1.91.19,3.29.26,4.65.48,78.36,12.67,155.7,29.88,231.6,53.22,49.46,15.21,97.74,33.41,143.27,58.29,22.89,12.52,44.63,26.74,63.81,44.59C487.73,872,498.13,884,506.1,898c15.86,27.92,16.84,56.68,5.27,86.19C509.31,989.5,506.64,994.52,504,1000.28ZM294.53,834.18c-3.51.2-8.86.17-14.11.9a74.56,74.56,0,0,0-14.95,3.43c-14.17,5.13-18.84,17.1-11.82,30.36a70.29,70.29,0,0,0,8.84,12.52c7,8.13,15.36,14.7,24.26,20.56,36.45,24,76.42,39.36,119.23,47.24,15.68,2.89,31.56,4.61,47.58,2.53,8.42-1.09,16.68-2.66,23.56-8.17,6-4.81,8.27-11,6.55-18.54-1.37-6-4.49-11.19-8.36-15.91-8.1-9.87-17.9-17.83-28.46-24.88-19.61-13.08-40.69-23.24-62.73-31.49C355.79,842.14,326.68,835.28,294.53,834.18Z" transform="translate(0.5 0.5)"/>
  <path class="b9eebfb6-dd00-4807-91c3-4bfe867111e8" d="M89.13,645.55c5.8.94,11,1.76,16.2,2.63q66.64,11.25,132,28.42c34.54,9.14,68.69,19.51,102.09,32.24,34.67,13.22,68.23,28.68,98.62,50.33,15.45,11,29.77,23.24,40.82,38.86,9.7,13.72,16.09,28.72,17.08,45.71.54,9.39-1,18.5-3.62,27.94a10.26,10.26,0,0,1-2.18-1.28c-19.9-21.75-43.69-38.46-69.1-53-33.84-19.31-69.59-34.43-106.2-47.55-44.34-15.89-89.6-28.74-135.4-39.67-22.78-5.43-45.69-10.38-68.59-15.35a7.73,7.73,0,0,1-6.1-4.72A177.34,177.34,0,0,1,91,665.1c-.87-5.23-1.53-10.5-2.21-15.76A22.69,22.69,0,0,1,89.13,645.55Z" transform="translate(0.5 0.5)"/>
  <path class="b9eebfb6-dd00-4807-91c3-4bfe867111e8" d="M539.33,805c-12.33-.28-22.11-5.77-31.07-13.16a135.19,135.19,0,0,1-22.42-24.1,334,334,0,0,1-35.59-61.19c-1.18-2.61-1.29-4.55.46-7,13.86-19.51,30.32-36.27,51-48.61,12.29-7.35,25.64-12,40-12.5,17.88-.6,33.79,5.73,48.05,16.2,16.92,12.43,30,28.41,41.9,45.51,1.78,2.55,1.06,4.77,0,7.21A278.62,278.62,0,0,1,611.54,747,202.71,202.71,0,0,1,589,777.49c-9.4,10.21-19.72,19.27-33.21,23.65C550.44,802.87,544.82,803.74,539.33,805Z" transform="translate(0.5 0.5)"/>
  <path class="ee757ea7-972e-494a-ba2f-20c54e37d5f2" d="M540.19,759.09c-6.11-.14-11-2.86-15.39-6.51a67.17,67.17,0,0,1-11.09-11.94,165.21,165.21,0,0,1-17.62-30.28,3.07,3.07,0,0,1,.23-3.47c6.86-9.66,15-18,25.22-24.07a41,41,0,0,1,19.79-6.18c8.85-.3,16.73,2.83,23.79,8,8.37,6.15,14.85,14.06,20.74,22.52.87,1.27.52,2.37,0,3.57a136.62,136.62,0,0,1-9.94,19.65,100.15,100.15,0,0,1-11.16,15.06c-4.65,5.06-9.76,9.55-16.44,11.71C545.69,758,542.9,758.46,540.19,759.09Z" transform="translate(0.5 0.5)"/>
  <path class="b9eebfb6-dd00-4807-91c3-4bfe867111e8" d="M539.64,894.6q-11.79-34.33-23.57-68.68l.78-.94c7.55,3.2,15.19,5.85,23.48,5.81s16.06-3,24.8-6.48c-8.31,24.06-16.31,47.2-24.31,70.34Z" transform="translate(0.5 0.5)"/>
  <path class="b48efa86-61a9-43ce-b9b0-bce55588a51d" d="M636.32,957.91c-6.85-.12-15.87-.23-24.52-3a47,47,0,0,1-11-4.93c-7.55-4.85-10.07-12.35-7.66-21a39.85,39.85,0,0,1,7.89-14.34c8-9.93,17.86-17.9,28.41-25,33.18-22.19,69.72-36.35,108.54-44.91,15.77-3.48,31.71-6.21,47.93-5.36a142.24,142.24,0,0,1,20.59,3,31,31,0,0,1,9.1,3.73c10,5.74,13.15,14.8,8.42,25.3a45,45,0,0,1-7.89,12.46,164.17,164.17,0,0,1-19.75,18.19c-26.32,19.91-56,33.12-87.37,42.93C686.05,952.22,662.67,957.34,636.32,957.91ZM783.21,842.24c-9.23.82-16.92,1.23-24.52,2.23a286.11,286.11,0,0,0-47.05,10.69c-29.38,9.07-57.3,21.3-82.63,39-8.59,6-16.86,12.43-23.43,20.64a60.58,60.58,0,0,0-8.41,13.4c-3.59,8.22-.95,15.17,6.77,19.67a26.93,26.93,0,0,0,8,3.44c6.8,1.32,13.67,2.69,20.56,3,18.07.83,35.76-2.16,53.25-6.4,33.13-8,64.69-20,93.66-38.21,11.33-7.13,22.52-14.57,31.38-24.77a65.12,65.12,0,0,0,9.82-14.43c4.37-9.18,1.44-17-7.47-21.74a32.67,32.67,0,0,0-9.21-3.48C796.62,843.91,789.18,843.08,783.21,842.24Z" transform="translate(0.5 0.5)"/>
  <path class="b48efa86-61a9-43ce-b9b0-bce55588a51d" d="M294.53,834.18c32.15,1.1,61.26,8,89.59,18.55,22,8.25,43.12,18.41,62.73,31.49,10.56,7,20.36,15,28.46,24.88,3.87,4.72,7,9.87,8.36,15.91,1.72,7.56-.54,13.73-6.55,18.54-6.88,5.51-15.14,7.08-23.56,8.17-16,2.08-31.9.36-47.58-2.53C363.17,941.31,323.2,926,286.75,902c-8.9-5.86-17.3-12.43-24.26-20.56a70.29,70.29,0,0,1-8.84-12.52c-7-13.26-2.35-25.23,11.82-30.36a74.56,74.56,0,0,1,14.95-3.43C285.67,834.35,291,834.38,294.53,834.18ZM442.69,949.27c4.19-.54,11.71-1,19-2.62A39.83,39.83,0,0,0,474.63,941c5.93-3.87,7.62-9.66,5.33-16.38a31.82,31.82,0,0,0-4.88-9.74,131.39,131.39,0,0,0-14.47-15.71c-12.09-10.79-25.83-19.27-40.25-26.57C383.62,854,345.19,841,303.77,838a107.38,107.38,0,0,0-25.73.84,61.37,61.37,0,0,0-15.58,5c-7.06,3.31-9.51,9.78-7.8,17.44,1.4,6.3,5,11.33,9,16.14,9.29,11.12,21,19.33,33.13,26.92,21.89,13.64,45.49,23.5,69.92,31.53A268.13,268.13,0,0,0,442.69,949.27Z" transform="translate(0.5 0.5)"/>
  <path class="a1447b3c-3404-447e-9d66-e6d21427bf1f" d="M783.21,842.24c6,.84,13.41,1.67,20.75,3a32.67,32.67,0,0,1,9.21,3.48c8.91,4.77,11.84,12.56,7.47,21.74a65.12,65.12,0,0,1-9.82,14.43c-8.86,10.2-20.05,17.64-31.38,24.77-29,18.22-60.53,30.17-93.66,38.21-17.49,4.24-35.18,7.23-53.25,6.4-6.89-.32-13.76-1.69-20.56-3a26.93,26.93,0,0,1-8-3.44c-7.72-4.5-10.36-11.45-6.77-19.67a60.58,60.58,0,0,1,8.41-13.4c6.57-8.21,14.84-14.65,23.43-20.64,25.33-17.67,53.25-29.9,82.63-39a286.11,286.11,0,0,1,47.05-10.69C766.29,843.47,774,843.06,783.21,842.24Z" transform="translate(0.5 0.5)"/>
  <path class="a1447b3c-3404-447e-9d66-e6d21427bf1f" d="M442.69,949.27a268.13,268.13,0,0,1-76-13.38c-24.43-8-48-17.89-69.92-31.53-12.17-7.59-23.84-15.8-33.13-26.92-4-4.81-7.59-9.84-9-16.14-1.71-7.66.74-14.13,7.8-17.44a61.37,61.37,0,0,1,15.58-5,107.38,107.38,0,0,1,25.73-.84c41.42,3,79.85,16,116.59,34.59,14.42,7.3,28.16,15.78,40.25,26.57a131.39,131.39,0,0,1,14.47,15.71,31.82,31.82,0,0,1,4.88,9.74c2.29,6.72.6,12.51-5.33,16.38a39.83,39.83,0,0,1-12.94,5.65C454.4,948.23,446.88,948.73,442.69,949.27Z" transform="translate(0.5 0.5)"/>
  <path class="b02eb351-589c-4c26-974d-31cce9922bb8" d="M601.57,585.51s190.78-252-57.8-503.92C286,336.87,471,582.33,471,582.33Z" transform="translate(0.5 0.5)"/>
  <path class="e0c0af7e-42ea-4b87-9883-4ac58d248bc3" d="M542,295.49a273,273,0,0,1,27.15,30.84A255.91,255.91,0,0,1,618.9,446.86c5.6,39.9,1.13,78.9-10.43,117.28-5.14,17-11.93,33.44-19.3,49.62a29,29,0,0,1-1.57,2.61h-5.4c-31.15,0-62.3-.06-93.45.12-4.1,0-6.09-1.27-7.73-5a304.55,304.55,0,0,1-24.35-95.93c-3.76-43.31,2.25-85.16,19-125.34,14.78-35.53,37-66.05,64.2-93A26.3,26.3,0,0,1,542,295.49Z" transform="translate(0.5 0.5)"/>
  <path class="b48efa86-61a9-43ce-b9b0-bce55588a51d" d="M237.46,365" transform="translate(0.5 0.5)"/>
  <path class="b3027fc1-7303-4edd-a0a3-691f860eb656" d="M100.52,490.85c-9.89-37.33,17.46-14.26,43.31,8,15.92,13.72,24.47,28.8,25.76,31.46a28.1,28.1,0,0,1-5.27,0,130.07,130.07,0,0,1-12.83-2.19c-7.54-1.64-16-5-24.56-8.71a83.35,83.35,0,0,1-13.1-6.71,17,17,0,0,1-4.63-2.94C104.28,505,102.18,497.11,100.52,490.85Z" transform="translate(0.5 0.5)"/>
  <polygon class="a15c73e0-8bd5-4fc5-9d55-216669959f8f" points="231.01 368.66 236.97 367.96 238.5 375.39 196.58 506.4 194.28 507.13 185.48 493.6 231.01 368.66"/>
  <path class="b3027fc1-7303-4edd-a0a3-691f860eb656" d="M937.13,522.84a168.48,168.48,0,0,1,28.76-34.93c11.09-10.13,36.76-30.8,43.63-24.26,4.11,3.92-1.71,20.47-2.54,22.7-4.49,11.94-11.73,18.08-16.63,21.91-14.08,11-32.38,18.1-38,16.63Z" transform="translate(0.5 0.5)"/>
  <path class="b3027fc1-7303-4edd-a0a3-691f860eb656" d="M937.13,522.84s6.07,3.32,16.42,2.22" transform="translate(0.5 0.5)"/>
</svg>
